<svg xmlns="http://www.w3.org/2000/svg" viewBox="0 0 754 166">
  <style>
    .plain {
      fill: #040616;
    }
    @media (prefers-color-scheme: dark) {
      .plain {
        fill: #fff;
      }
    }
  </style>

  <path
    d="m753.85 31.15-55.49 132.97h-19.37l18.39-44-35.62-88.98h20.85l25.45 68.95 26.43-68.95h19.37l-.01.01ZM304.54 52.33c-3.72-7-8.84-12.45-15.35-16.33-6.51-3.88-13.71-5.83-21.59-5.83-6.89 0-13.08 1.42-18.55 4.27-5.48 2.84-9.8 6.35-12.97 10.5v-13.3h-18.71v133.47h18.71v-56.15c3.39 4.16 7.77 7.64 13.14 10.43 5.35 2.79 11.49 4.19 18.38 4.19 7.88 0 15.08-2 21.59-6s11.63-9.57 15.35-16.74c3.72-7.17 5.58-15.3 5.58-24.38 0-9.08-1.86-17.13-5.58-24.13Zm-17.32 40.55c-2.57 4.71-5.96 8.29-10.18 10.75-4.22 2.46-8.73 3.69-13.54 3.69-4.81 0-9.16-1.2-13.38-3.61-4.21-2.41-7.6-5.93-10.18-10.59-2.57-4.65-3.86-10.09-3.86-16.33 0-6.24 1.28-11.65 3.86-16.25 2.57-4.6 5.97-8.1 10.18-10.51 4.22-2.41 8.67-3.62 13.38-3.62 4.71 0 9.33 1.18 13.54 3.53 4.22 2.35 7.6 5.8 10.18 10.34 2.57 4.54 3.86 9.93 3.86 16.17 0 6.24-1.29 11.72-3.86 16.42v.01ZM354.2 34.02c-4.54 2.57-8.18 6.15-10.92 10.76V31.64h-18.71v90.46h18.71V74.49c0-9.19 1.89-15.65 5.67-19.38 3.77-3.72 9.33-5.58 16.66-5.58h4.76V30.15c-6.24 0-11.63 1.29-16.17 3.86v.01ZM383.5 31.64v90.46h18.71V31.64H383.5ZM485.44 82.86c-3.06-3.5-6.7-6.15-10.92-7.96-4.22-1.8-9.6-3.58-16.17-5.33-4.93-1.42-8.65-2.59-11.16-3.53-2.52-.93-4.65-2.22-6.4-3.86-1.75-1.64-2.63-3.67-2.63-6.08 0-3.06 1.32-5.53 3.94-7.38 2.63-1.86 6.4-2.79 11.33-2.79s9.03 1.21 11.99 3.62c2.95 2.41 4.6 5.64 4.93 9.68h18.71c-.44-8.97-3.8-16.06-10.09-21.26-6.3-5.2-14.59-7.8-24.87-7.8-6.89 0-13 1.15-18.31 3.45-5.31 2.3-9.38 5.44-12.23 9.44-2.85 4-4.27 8.4-4.27 13.21 0 5.91 1.56 10.67 4.68 14.28 3.12 3.61 6.82 6.29 11.08 8.05 4.27 1.75 9.8 3.55 16.58 5.42 7 1.97 12.12 3.77 15.35 5.42 3.23 1.64 4.84 4.16 4.84 7.55 0 3.18-1.46 5.78-4.35 7.8-2.9 2.02-6.98 3.04-12.23 3.04s-9.23-1.29-12.56-3.86c-3.34-2.57-5.18-5.78-5.5-9.6H417.8c.22 5.47 1.97 10.43 5.25 14.86 3.28 4.43 7.74 7.94 13.39 10.51 5.63 2.57 12.01 3.86 19.12 3.86 7.11 0 13.11-1.15 18.31-3.45 5.2-2.3 9.22-5.47 12.07-9.52 2.84-4.05 4.26-8.65 4.26-13.79-.11-5.8-1.7-10.45-4.76-13.96v-.02ZM648.21 47.74c-3.23-5.8-7.66-10.18-13.3-13.14-5.64-2.95-12.01-4.43-19.13-4.43-6.68 0-12.92 1.61-18.71 4.84-5.8 3.23-10.07 7.58-12.81 13.05-3.06-5.8-7.45-10.23-13.13-13.3-5.69-3.06-12.15-4.6-19.38-4.6-5.36 0-10.4 1.04-15.1 3.12-4.71 2.08-8.59 4.98-11.65 8.7V31.64h-18.71v90.46H525V71.54c0-8.1 2.06-14.31 6.15-18.64 4.11-4.32 9.66-6.49 16.66-6.49s12.53 2.17 16.58 6.49c4.05 4.33 6.08 10.54 6.08 18.64v50.56h18.55V71.54c0-8.1 2.05-14.31 6.15-18.64 4.11-4.32 9.66-6.49 16.66-6.49s12.53 2.17 16.58 6.49c4.05 4.33 6.07 10.54 6.07 18.64v50.56h18.55V68.74c0-8.2-1.61-15.21-4.84-21.01l.02.01Z"
    class="plain"
    fill="#040616"
  />

  <path d="M407.86 0h-30.01v17.61h30.01V0Z" fill="url(#b)" />

  <path
    d="M146.74 58.03c-8.01 12.48-21.01 22.09-21.01 22.09l-12.81-19.94s11.79-9 20.88-21.47l12.94 19.32Z"
    fill="url(#c)"
  />

  <path
    d="M71.41 6.5c1.64-2.55 5.38-2.55 7.02 0l26.7 41.55 7.71 12 .08.14c-10.62 7.63-23.77 12.16-38 12.16s-27.44-4.56-38.05-12.19L71.41 6.5ZM4.19 122.83h141.33c3.3 0 5.29-3.65 3.51-6.42l-23.31-36.29c-14.36 9.83-31.9 15.61-50.8 15.61S38.4 89.92 24.04 80.09L.67 116.4c-1.79 2.78.21 6.44 3.52 6.43Z"
    class="plain"
    fill="#040616"
  />

  <defs>
    <linearGradient
      id="b"
      x1="377.85"
      x2="407.86"
      y1="8.81"
      y2="8.81"
      gradientUnits="userSpaceOnUse"
    >
      <stop stop-color="#A5E2E4" />
      <stop offset=".48" stop-color="#007FFF" />
      <stop offset="1" stop-color="#05162F" />
    </linearGradient>

    <linearGradient
      id="c"
      x1="134.02"
      x2="124.96"
      y1="40.36"
      y2="80.92"
      gradientUnits="userSpaceOnUse"
    >
      <stop stop-color="#05162F" />
      <stop offset=".52" stop-color="#007FFF" />
      <stop offset="1" stop-color="#A5E2E4" />
    </linearGradient>
  </defs>
</svg>
